FFmpeg version SVN-r25716, Copyright (c) 2000-2010 the FFmpeg developers  built on Nov 10 2010 12:23:18 with gcc 4.1.2 20080704 (Red Hat 4.1.2-48)  configuration: --enable-libmp3lame --enable-shared --disable-mmx --arch=x86_64  libavutil     50.33. 0 / 50.33. 0  libavcore      0.12. 1 /  0.12. 1  libavcodec    52.94. 4 / 52.94. 4  libavformat   52.84. 0 / 52.84. 0  libavdevice   52. 2. 2 / 52. 2. 2  libavfilter    1.59. 0 /  1.59. 0  libswscale     0.12. 0 /  0.12. 0Input #0, mov,mp4,m4a,3gp,3g2,mj2, from '/RAID10/data/converted_video_files/26290.mov':  Metadata:    major_brand     : qt      minor_version   : 0    compatible_brands: qt      encoder         : CoreMediaAuthoring 700, CoreMedia 484.20, i386    encoder-eng     : CoreMediaAuthoring 700, CoreMedia 484.20, i386  Duration: 00:00:37.62, start: 0.000000, bitrate: 1963 kb/s    Stream #0.0(eng): Video: h264, yuv420p, 512x512, 1960 kb/s, 24 fps, 24 tbr, 24 tbn, 48 tbc[buffer @ 0x12d85970] w:512 h:512 pixfmt:yuv420pOutput #0, flv, to '/RAID10/data/converted_video_files/26290.flv':  Metadata:    encoder         : Lavf52.84.0    Stream #0.0(eng): Video: flv, yuv420p, 512x512, q=2-31, 600 kb/s, 1k tbn, 24 tbcStream mapping:  Stream #0.0 -> #0.0Press [q] to stop encodingframe=   39 fps=  0 q=31.0 size=     749kB time=1.62 bitrate=3775.1kbits/s    frame=   85 fps= 82 q=24.8 size=     954kB time=3.54 bitrate=2206.1kbits/s    frame=  131 fps= 84 q=31.0 size=    1125kB time=5.46 bitrate=1688.5kbits/s    frame=  176 fps= 86 q=31.0 size=    1261kB time=7.33 bitrate=1408.8kbits/s    frame=  221 fps= 86 q=31.0 size=    1453kB time=9.21 bitrate=1292.6kbits/s    frame=  267 fps= 87 q=31.0 size=    1618kB time=11.12 bitrate=1191.5kbits/s    frame=  308 fps= 87 q=31.0 size=    1755kB time=12.83 bitrate=1120.1kbits/s    frame=  356 fps= 87 q=31.0 size=    1951kB time=14.83 bitrate=1077.5kbits/s    frame=  392 fps= 85 q=31.0 size=    2082kB time=16.33 bitrate=1044.3kbits/s    frame=  437 fps= 86 q=31.0 size=    2208kB time=18.21 bitrate= 993.2kbits/s    frame=  487 fps= 87 q=31.0 size=    2330kB time=20.29 bitrate= 940.7kbits/s    frame=  537 fps= 88 q=31.0 size=    2450kB time=22.38 bitrate= 897.0kbits/s    frame=  587 fps= 89 q=31.0 size=    2561kB time=24.46 bitrate= 857.8kbits/s    frame=  635 fps= 89 q=31.0 size=    2678kB time=26.46 bitrate= 829.2kbits/s    frame=  679 fps= 89 q=31.0 size=    2795kB time=28.29 bitrate= 809.3kbits/s    frame=  731 fps= 90 q=31.0 size=    2902kB time=30.46 bitrate= 780.4kbits/s    frame=  784 fps= 91 q=31.0 size=    3023kB time=32.67 bitrate= 758.0kbits/s    frame=  828 fps= 87 q=31.0 size=    3116kB time=34.50 bitrate= 739.9kbits/s    frame=  841 fps= 87 q=31.0 size=    3143kB time=35.04 bitrate= 734.8kbits/s    frame=  892 fps= 88 q=31.0 size=    3259kB time=37.17 bitrate= 718.2kbits/s    frame=  903 fps= 88 q=24.8 Lsize=    3284kB time=37.62 bitrate= 715.1kbits/s    video:3270kB audio:0kB global headers:0kB muxing overhead 0.437740%